<svg xmlns="http://www.w3.org/2000/svg" version="1.1" xmlns:xlink="http://www.w3.org/1999/xlink" xmlns:svgjs="http://svgjs.com/svgjs" width="512" height="512" x="0" y="0" viewBox="0 0 512 512" style="enable-background:new 0 0 512 512" xml:space="preserve" class=""><g><path xmlns="http://www.w3.org/2000/svg" d="m320 0v128h128z" fill="#101729" data-original="#000000" class=""></path><path xmlns="http://www.w3.org/2000/svg" d="m288 128v-128h-192c-17.632 0-32 14.368-32 32v448c0 17.664 14.368 32 32 32h320c17.664 0 32-14.336 32-32v-320h-128c-17.632 0-32-14.368-32-32zm64 142.016c0 8.832-7.168 16-16 16s-16-7.168-16-16c0-21.376-17.504-33.6-32-40.032v170.016c0 26.912-28.096 48-64 48s-64-21.088-64-48 28.096-48 64-48c11.808 0 22.592 2.464 32 6.464v-150.464c0-4.768 2.112-9.28 5.792-12.32s8.512-4.256 13.184-3.392c26.656 4.992 77.024 27.68 77.024 77.728z" fill="#101729" data-original="#000000" class=""></path><g xmlns="http://www.w3.org/2000/svg"></g><g xmlns="http://www.w3.org/2000/svg"></g><g xmlns="http://www.w3.org/2000/svg"></g><g xmlns="http://www.w3.org/2000/svg"></g><g xmlns="http://www.w3.org/2000/svg"></g><g xmlns="http://www.w3.org/2000/svg"></g><g xmlns="http://www.w3.org/2000/svg"></g><g xmlns="http://www.w3.org/2000/svg"></g><g xmlns="http://www.w3.org/2000/svg"></g><g xmlns="http://www.w3.org/2000/svg"></g><g xmlns="http://www.w3.org/2000/svg"></g><g xmlns="http://www.w3.org/2000/svg"></g><g xmlns="http://www.w3.org/2000/svg"></g><g xmlns="http://www.w3.org/2000/svg"></g><g xmlns="http://www.w3.org/2000/svg"></g></g></svg>