<svg xmlns="http://www.w3.org/2000/svg" version="1.1" xmlns:xlink="http://www.w3.org/1999/xlink" xmlns:svgjs="http://svgjs.com/svgjs" width="512" height="512" x="0" y="0" viewBox="0 0 512 512" style="enable-background:new 0 0 512 512" xml:space="preserve"><g><g xmlns="http://www.w3.org/2000/svg" id="_x32_5_folder"><path d="m456.245 430.594h-397.802c-11.277 0-20.419-9.142-20.419-20.419v-333.519c0-11.277 9.142-20.419 20.419-20.419h397.802c11.277 0 20.419 9.142 20.419 20.419v333.518c.001 11.278-9.141 20.42-20.419 20.42z" fill="#FEB137" data-original="#feb137"></path><path d="m456.245 56.236h-39.685c11.277 0 20.419 9.142 20.419 20.419v333.518c0 11.277-9.142 20.419-20.419 20.419h39.685c11.277 0 20.419-9.142 20.419-20.419v-333.517c.001-11.278-9.141-20.42-20.419-20.42z" fill="#F6AB31" data-original="#f6ab31"></path><path d="m491.58 110.312h-251.601l-50.129-74.012c-3.799-5.609-10.132-8.969-16.907-8.969h-152.523c-11.278 0-20.42 9.142-20.42 20.419v416.5c0 11.277 9.142 20.419 20.42 20.419h471.16c11.277 0 20.42-9.142 20.42-20.419v-333.519c0-11.277-9.142-20.419-20.42-20.419z" fill="#FFD15B" data-original="#ffd15b"></path><g><path d="m491.581 110.312h-39.685c11.277 0 20.419 9.142 20.419 20.419v333.519c0 11.277-9.142 20.419-20.419 20.419h39.685c11.277 0 20.419-9.142 20.419-20.419v-333.519c0-11.277-9.142-20.419-20.419-20.419z" fill="#FFC344" data-original="#ffc344"></path></g></g></g></svg>