<?xml version="1.0" standalone="no"?>
<!DOCTYPE svg PUBLIC "-//W3C//DTD SVG 20010904//EN"
 "http://www.w3.org/TR/2001/REC-SVG-20010904/DTD/svg10.dtd">
<svg version="1.0" xmlns="http://www.w3.org/2000/svg"
 width="64.000000pt" height="64.000000pt" viewBox="0 0 69.000000 60.000000"
 preserveAspectRatio="xMidYMid meet">

<g transform="translate(0.000000,64.000000) scale(0.100000,-0.100000)"
 stroke="none">
<path d="M283 577 c15 -46 41 -49 56 -6 15 42 13 48 -4 25 -13 -17 -15 -18
-15 -3 0 9 -4 17 -9 17 -5 0 -7 -10 -4 -22 5 -23 4 -23 -15 2 l-20 24 11 -37z"/>
<path d="M232 550 c-7 -11 -19 -20 -27 -20 -11 0 -15 -13 -15 -54 0 -53 1 -54
33 -61 64 -13 137 -17 137 -7 0 6 -10 13 -22 15 -20 4 -19 4 5 6 33 1 35 16 5
26 l-23 8 23 4 c12 2 22 8 22 13 0 5 -10 11 -22 13 l-23 4 23 8 c31 10 28 29
-4 21 -35 -9 -61 1 -67 24 -7 26 -29 26 -45 0z"/>
<path d="M350 560 c0 -5 5 -10 10 -10 6 0 10 5 10 10 0 6 -4 10 -10 10 -5 0
-10 -4 -10 -10z"/>
<path d="M130 474 c0 -72 1 -75 23 -72 20 3 22 9 25 76 3 71 3 72 -23 72 -25
0 -25 -1 -25 -76z"/>
<path d="M204 373 c-49 -74 1 -163 90 -163 84 0 138 79 102 149 -20 38 -38 41
-31 4 l6 -28 -16 25 c-16 24 -16 24 -12 3 3 -13 1 -25 -3 -28 -5 -3 -10 5 -12
17 -2 14 -13 24 -32 29 -35 10 -46 4 -46 -22 0 -10 -5 -19 -11 -19 -7 0 -9 11
-5 30 7 37 -6 39 -30 3z m114 -66 c3 -13 -1 -15 -15 -11 -17 6 -17 6 1 -8 13
-10 16 -21 11 -37 -8 -25 -28 -23 -33 2 -3 12 2 15 15 11 17 -5 17 -5 1 6 -27
17 -21 66 6 57 6 -2 12 -11 14 -20z"/>
<path d="M160 156 c0 -2 26 -20 57 -41 54 -36 59 -37 116 -31 38 4 65 2 73 -5
11 -9 16 -5 24 17 9 23 8 31 -8 47 -17 16 -28 18 -91 11 -75 -7 -93 -20 -38
-27 28 -3 27 -4 -10 -5 -27 -1 -54 5 -75 18 -31 19 -48 25 -48 16z"/>
<path d="M210 156 c0 -2 7 -7 16 -10 8 -3 12 -2 9 4 -6 10 -25 14 -25 6z"/>
<path d="M446 96 c-20 -70 -21 -66 18 -66 32 0 34 2 40 46 9 70 8 74 -18 74
-21 0 -27 -8 -40 -54z"/>
</g>
</svg>
