<svg id="Layer_1" data-name="Layer 1" xmlns="http://www.w3.org/2000/svg" viewBox="0 0 400 400"><defs><style>.cls-1{}.cls-2{}.cls-3{}.cls-4{}</style></defs><path class="cls-1" d="M391.93,279c-2.42,3.8-6,4.95-10.34,4.91-14.33-.13-28.67,0-43-.05-6.29,0-9.4-2.64-11.13-8.79-9.12-32.47-20.87-64-33.18-95.38-3.94-10-7.9-20-13.22-29.47-2.27-4,.21-8.79,5.37-10.69A232.77,232.77,0,0,1,327,128.79,326.88,326.88,0,0,1,382,124c4.52,0,7.86,1.21,9.91,5.32Z"/><path class="cls-2" d="M203.26,329.56a1.27,1.27,0,0,1-.93,2.16,37.92,37.92,0,0,1-22.08-7.17c-24.87-18.1-49.25-36.86-72.79-56.67-5.21-4.39-9.59-9.77-14.43-14.63-1.17-1.18-1.06-2.16-.57-3.64a794.27,794.27,0,0,0,22.17-81.36c.72-3.27,1.32-6.57,2.08-9.83.26-1.1.2-2.54,2.08-2.53,9.06,0,18.12,0,27.72,0a1.27,1.27,0,0,1,1,2.1,106.54,106.54,0,0,0-8.13,10.22c-6.2,9.25-11.55,18.84-12.56,30.26-.93,10.49,4.52,18.16,14.49,21.41,17.78,5.79,31.92,0,43.77-13.24a8.39,8.39,0,0,1,6.27-3.24c4.43-.23,8.16-2.56,11.84-4.81a2.84,2.84,0,0,1,3.85.25c24,19.68,48.44,38.75,71.81,59.15,6.39,5.57,12.36,11.6,17,18.8,1.67,2.61,3.24,5.31,3.35,8.57.15,4.41-1.54,7.57-5.11,9.06-3.94,1.65-6.6,1.7-10.28-2.07-14.11-14.45-28.5-28.62-42.76-42.92-2.48-2.49-5.24-3.84-8.71-2.63A7.58,7.58,0,0,0,227,253c-.55,3.16,1,5.44,3.08,7.56C244,274.42,257.7,288.34,271.67,302c2.44,2.39,1.71,3.62-.17,5.63-4.14,4.44-9.31,4.77-14.78,4.19-1.73-.19-2.79-1.52-3.93-2.66Q234,290.42,215.24,271.65c-2.21-2.21-4.67-3.65-8-2.64a7.88,7.88,0,0,0-5.79,6.19c-.74,3.31,1,5.68,3.22,7.87,10.69,10.65,21.39,21.28,32,32,1.42,1.44,4.24,2.34,3.2,5.28-1.27,3.64-3.21,6.84-7.2,7.95-4.49,1.26-8.29.58-11.83-3.11-9.67-10.07-19.63-19.85-29.57-29.66-5-4.93-11.94-3.17-13.65,3.3-.84,3.16.56,5.54,2.68,7.67q11.49,11.5,23,23Z"/><path class="cls-3" d="M8.82,188.06q0-35,0-69.91c0-7.35,3.21-10.34,10.54-9.79,20.83,1.56,41.65,3.24,62,8.3,7.23,1.81,14.3,4,20.24,8.92a7.15,7.15,0,0,1,3,6.38c-.64,10.57-2.74,20.92-4.93,31.25C93,194.87,83.27,225.74,74.29,256.8c-.42,1.42-.81,2.86-1.14,4.3-.93,4-3.71,6.61-7.81,6.63q-24.5.12-49,0c-4.81,0-7.53-3.11-7.53-8.27q0-33.45,0-66.92Z"/><path class="cls-4" d="M310.06,264.63a1.68,1.68,0,0,1-1.8-.76C292.31,245,273,229.84,254,214.27c-12.13-10-23.79-20.49-35.7-30.71a13,13,0,0,0-13.13-2.77c-4.21,1.42-8.23,3.41-12.33,5.18a22.52,22.52,0,0,1-8.25,2.09c-3.3.09-5.58,1.81-7.34,4.43a37.18,37.18,0,0,1-8.8,9.58c-7,5.06-14.29,4.89-21.83,1.39a3.8,3.8,0,0,1-2.36-3.8,22.9,22.9,0,0,1,2.71-10.73c9.3-19.15,24.18-33.05,42.26-43.52,11.41-6.6,23.32-4.06,34.89.45,15.34,6,30.46,12.54,46.24,17.34,1.94.6,2.67,2,3.41,3.61,7.14,15.29,12.95,31.11,18.69,46.95C298.31,230,304,246.2,309.82,262.42,310.07,263.11,310.58,263.73,310.06,264.63Z"/></svg>